<?xml version="1.0" encoding="UTF-8"?><svg id="Layer_2" xmlns="http://www.w3.org/2000/svg" viewBox="0 0 30 30"><defs><style>.cls-1{stroke-width:0px;}</style></defs><g id="Contents"><path class="cls-1" d="M15,0C6.73,0,0,6.73,0,15s6.73,15,15,15,15-6.73,15-15S23.27,0,15,0ZM15,27.9c-7.11,0-12.9-5.79-12.9-12.9S7.89,2.1,15,2.1s12.9,5.79,12.9,12.9-5.79,12.9-12.9,12.9Z"/><path class="cls-1" d="M21.5,8.84l-7.3,7.3-4.31-4.31c-.41-.41-1.07-.41-1.48,0-.41.41-.41,1.07,0,1.48l5.05,5.05c.2.2.47.31.74.31s.54-.1.74-.31l8.04-8.04c.41-.41.41-1.07,0-1.48-.41-.41-1.07-.41-1.48,0Z"/></g></svg>