<?xml version="1.0" encoding="UTF-8"?><svg id="Layer_2" xmlns="http://www.w3.org/2000/svg" viewBox="0 0 30 17.07"><defs><style>.cls-1{stroke-width:0px;}</style></defs><g id="Contents"><path class="cls-1" d="M29.33,1.47c-.44,0-.81-.36-.81-.81,0-.37-.3-.67-.67-.67H2.14c-.37,0-.67.3-.67.67,0,.44-.36.81-.8.81C.3,1.47,0,1.77,0,2.14v2.3C0,4.81.3,5.11.67,5.11c.44,0,.8.36.8.81s-.36.8-.81.8c-.37,0-.67.3-.67.67v2.3c0,.37.3.67.67.67.44,0,.8.36.8.81s-.36.81-.8.81c-.37,0-.67.3-.67.67v2.3c0,.37.3.67.67.67.44,0,.8.36.8.81,0,.37.3.67.67.67h25.72c.37,0,.67-.3.67-.67,0-.44.36-.81.81-.81.37,0,.67-.3.67-.67v-2.3c0-.37-.3-.67-.67-.67-.44,0-.81-.36-.81-.81s.36-.81.81-.81c.37,0,.67-.3.67-.67v-2.3c0-.37-.3-.67-.67-.67-.44,0-.81-.36-.81-.81s.36-.81.81-.81c.37,0,.67-.3.67-.67v-2.3c0-.37-.3-.67-.67-.67ZM28.67,3.88c-.85.28-1.47,1.09-1.47,2.03s.62,1.75,1.47,2.03v1.18c-.85.28-1.47,1.09-1.47,2.03s.62,1.75,1.47,2.03v1.18c-.64.21-1.15.72-1.37,1.37h-3.28v-.67c0-.28-.22-.5-.5-.5s-.5.22-.5.5v.67H2.7c-.21-.64-.72-1.15-1.37-1.37v-1.18c.85-.28,1.47-1.09,1.47-2.03s-.62-1.75-1.47-2.03v-1.18c.85-.28,1.47-1.09,1.47-2.03s-.62-1.75-1.47-2.03v-1.18c.64-.21,1.15-.72,1.37-1.37h20.32v.67c0,.28.22.5.5.5s.5-.22.5-.5v-.67h3.28c.21.64.72,1.15,1.37,1.37v1.18h0Z"/><path class="cls-1" d="M23.52,9.34c-.28,0-.5.22-.5.5v2.61c0,.28.22.5.5.5s.5-.22.5-.5v-2.61c0-.28-.22-.5-.5-.5Z"/><path class="cls-1" d="M23.52,4.11c-.28,0-.5.22-.5.5v2.61c0,.28.22.5.5.5s.5-.22.5-.5v-2.61c0-.28-.22-.5-.5-.5Z"/><path class="cls-1" d="M14.8,7.66l-.95-.28-.56-.81c-.15-.22-.47-.22-.62,0l-.56.81-.95.28c-.25.07-.35.38-.19.59l.6.78-.03.99c0,.26.25.45.5.37l.93-.33.93.33c.25.09.51-.1.5-.37l-.03-.99.6-.78c.16-.21.06-.52-.19-.59Z"/><path class="cls-1" d="M20.9,7.66l-.95-.28-.56-.81c-.15-.22-.47-.22-.62,0l-.56.81-.95.28c-.25.07-.35.38-.19.59l.6.78-.03.99c0,.26.25.45.5.37l.93-.33.93.33c.25.09.51-.1.5-.37l-.03-.99.6-.78c.16-.21.06-.52-.19-.59Z"/><path class="cls-1" d="M8.69,7.66l-.95-.28-.56-.81c-.15-.22-.47-.22-.62,0l-.56.81-.95.28c-.25.07-.35.38-.19.59l.6.78-.03.99c0,.26.25.45.5.37l.93-.33.93.33c.25.09.51-.1.5-.37l-.03-.99.6-.78c.16-.21.06-.52-.19-.59Z"/></g></svg>