<?xml version="1.0" encoding="UTF-8"?><svg id="Layer_2" xmlns="http://www.w3.org/2000/svg" viewBox="0 0 22.69 30"><defs><style>.cls-1{stroke-width:0px;}</style></defs><g id="Contents"><path class="cls-1" d="M11.35,30l-.57-.39c-.44-.3-10.77-7.44-10.77-18.26C0,5.09,5.09,0,11.35,0s11.35,5.09,11.35,11.35c0,10.82-10.33,17.97-10.77,18.26l-.57.39ZM11.35,2.04C6.22,2.04,2.04,6.22,2.04,11.35c0,8.34,7.19,14.52,9.3,16.15,2.11-1.63,9.3-7.81,9.3-16.15,0-5.13-4.17-9.3-9.3-9.3Z"/><path class="cls-1" d="M11.35,17.35c-3.23,0-5.86-2.63-5.86-5.86s2.63-5.86,5.86-5.86,5.86,2.63,5.86,5.86-2.63,5.86-5.86,5.86Z"/></g></svg>