<?xml version="1.0" encoding="UTF-8"?><svg id="Layer_2" xmlns="http://www.w3.org/2000/svg" viewBox="0 0 300 211.48"><defs><style>.cls-1{opacity:.2;}.cls-2{opacity:.5;}.cls-3{stroke-width:0px;}</style></defs><g id="Contents"><path class="cls-3" d="M81.62,26.91c0,1.25-.26,2.37-.77,3.35-.52.98-1.23,1.8-2.13,2.46-.9.66-1.97,1.16-3.19,1.5-1.23.34-2.56.51-4.01.51-1.23,0-2.56-.14-3.99-.41-1.43-.27-2.68-.64-3.75-1.09l.97-4.69c1.03.42,2.1.75,3.19.99,1.1.24,2.21.36,3.34.36s2.01-.16,2.73-.48c.73-.32,1.09-.9,1.09-1.74,0-.74-.36-1.28-1.06-1.62-.71-.34-1.64-.75-2.81-1.23-.94-.39-1.84-.78-2.71-1.19-.87-.4-1.64-.89-2.3-1.45-.66-.56-1.19-1.23-1.6-1.98-.4-.76-.6-1.7-.6-2.83,0-1.23.23-2.29.7-3.19.47-.9,1.11-1.64,1.93-2.22.82-.58,1.79-1.02,2.9-1.31,1.11-.29,2.31-.44,3.6-.44,1.35,0,2.65.12,3.89.37,1.24.24,2.44.68,3.6,1.29l-1.02,4.72c-.94-.42-1.91-.77-2.93-1.04-1.02-.27-2.04-.41-3.07-.41-.94,0-1.69.1-2.25.31-.56.21-.85.65-.85,1.33s.34,1.13,1.02,1.45c.68.32,1.48.69,2.42,1.11.68.29,1.46.62,2.35.99.89.37,1.72.84,2.49,1.42s1.43,1.28,1.98,2.1c.55.82.82,1.84.82,3.06Z"/><path class="cls-3" d="M110.3,26.21l3.82-15.52h6.34l-6.77,23.55h-6.19l-5.61-16.59-5.61,16.59h-6.19l-6.77-23.55h6.34l3.82,15.52,5.17-15.52h6.48l5.17,15.52Z"/><path class="cls-3" d="M123.41,3.82c0-1.06.35-1.97,1.06-2.71.71-.74,1.63-1.11,2.76-1.11s2.06.37,2.78,1.11c.73.74,1.09,1.64,1.09,2.71s-.36,1.93-1.09,2.68c-.73.76-1.65,1.14-2.78,1.14s-2.05-.38-2.76-1.14c-.71-.76-1.06-1.65-1.06-2.68ZM123.94,34.24V10.69h6.63v23.55h-6.63Z"/><path class="cls-3" d="M162.44,15.48c-1.03,0-1.93.29-2.68.87-.76.58-1.36,1.19-1.81,1.84.1.58.18,1.2.24,1.86.06.66.1,1.31.1,1.96v12.24h-6.63v-12.28c0-2.19-.31-3.82-.92-4.89-.61-1.06-1.64-1.6-3.1-1.6-1,0-1.83.23-2.49.68-.66.45-1.22.98-1.67,1.6v16.49h-6.63V10.69h6.38v3.19c.77-1.26,1.76-2.18,2.95-2.78,1.19-.6,2.5-.89,3.92-.89,1.64,0,3,.37,4.06,1.11,1.06.74,1.92,1.73,2.56,2.95,1.06-1.48,2.26-2.53,3.58-3.14,1.32-.61,2.8-.92,4.45-.92,1.52,0,2.8.3,3.85.89,1.05.6,1.9,1.43,2.56,2.49.66,1.06,1.14,2.31,1.45,3.75.31,1.43.46,2.99.46,4.67v12.24h-6.63v-12.28c0-2.19-.31-3.82-.92-4.89-.61-1.06-1.64-1.6-3.1-1.6Z"/><path class="cls-3" d="M35.77,89.12v-23.76H14.38v23.76H0V30.72h14.38v22.89h21.4v-22.89h14.38v58.4h-14.38Z"/><path class="cls-3" d="M84.61,84.91c-1.35,1.35-3.17,2.53-5.48,3.55-2.31,1.02-4.84,1.53-7.58,1.53-1.93,0-3.65-.32-5.17-.96-1.52-.64-2.79-1.52-3.81-2.63-1.02-1.11-1.81-2.41-2.37-3.9-.56-1.49-.83-3.08-.83-4.78,0-3.97,1.24-6.97,3.73-8.99,2.48-2.02,6.01-3.2,10.57-3.55,1.69-.12,3.49-.2,5.39-.26,1.9-.06,3.58-.12,5.04-.18v-1.4c0-4.68-2.6-7.01-7.8-7.01-2.05,0-4.02.23-5.92.7-1.9.47-3.64,1.11-5.22,1.93l-2.54-9.73c2.05-1.17,4.46-2.12,7.23-2.85,2.78-.73,5.8-1.1,9.08-1.1,6.02,0,10.73,1.56,14.12,4.69,3.39,3.13,5.09,7.82,5.09,14.07v25.08h-13.5v-4.21ZM76.99,80.79c1.34,0,2.62-.18,3.81-.53,1.2-.35,2.29-.82,3.29-1.4v-6.4c-1.4.12-2.66.25-3.77.39-1.11.15-2.19.28-3.24.39-2.86.35-4.3,1.7-4.3,4.03,0,1.05.36,1.9,1.1,2.54.73.64,1.77.96,3.11.96Z"/><path class="cls-3" d="M147.48,89.12l-9.47-27.45-9.47,27.45h-13.15l-12.19-42.97h13.42l6.05,25.87,8.77-25.87h13.15l8.77,25.87,6.05-25.87h13.42l-12.19,42.97h-13.15Z"/><path class="cls-3" d="M201.58,84.91c-1.35,1.35-3.17,2.53-5.48,3.55-2.31,1.02-4.84,1.53-7.58,1.53-1.93,0-3.65-.32-5.17-.96-1.52-.64-2.79-1.52-3.81-2.63-1.02-1.11-1.81-2.41-2.37-3.9-.56-1.49-.83-3.08-.83-4.78,0-3.97,1.24-6.97,3.73-8.99,2.48-2.02,6.01-3.2,10.57-3.55,1.69-.12,3.49-.2,5.39-.26,1.9-.06,3.58-.12,5.04-.18v-1.4c0-4.68-2.6-7.01-7.8-7.01-2.05,0-4.02.23-5.92.7-1.9.47-3.64,1.11-5.22,1.93l-2.54-9.73c2.05-1.17,4.46-2.12,7.23-2.85,2.78-.73,5.8-1.1,9.08-1.1,6.02,0,10.73,1.56,14.12,4.69,3.39,3.13,5.09,7.82,5.09,14.07v25.08h-13.5v-4.21ZM193.96,80.79c1.34,0,2.62-.18,3.81-.53,1.2-.35,2.29-.82,3.29-1.4v-6.4c-1.4.12-2.66.25-3.77.39-1.11.15-2.19.28-3.24.39-2.86.35-4.3,1.7-4.3,4.03,0,1.05.36,1.9,1.1,2.54.73.64,1.77.96,3.11.96Z"/><path class="cls-3" d="M224.12,33.62c0-2.22.73-4.09,2.19-5.61,1.46-1.52,3.36-2.28,5.7-2.28s4.24.76,5.7,2.28c1.46,1.52,2.19,3.39,2.19,5.61s-.73,4.09-2.19,5.61c-1.46,1.52-3.36,2.28-5.7,2.28s-4.24-.76-5.7-2.28c-1.46-1.52-2.19-3.39-2.19-5.61ZM224.99,89.12v-42.97h14.03v42.97h-14.03Z"/><path class="cls-3" d="M248.67,33.62c0-2.22.73-4.09,2.19-5.61,1.46-1.52,3.36-2.28,5.7-2.28s4.24.76,5.7,2.28c1.46,1.52,2.19,3.39,2.19,5.61s-.73,4.09-2.19,5.61c-1.46,1.52-3.36,2.28-5.7,2.28s-4.24-.76-5.7-2.28c-1.46-1.52-2.19-3.39-2.19-5.61ZM249.55,89.12v-42.97h14.03v42.97h-14.03Z"/><path class="cls-3" d="M17.41,164.08v-58.4h36.74v11.4h-22.36v13.24h21.31v11.4h-21.31v22.36h-14.38Z"/><path class="cls-3" d="M61.16,108.58c0-2.22.73-4.09,2.19-5.61,1.46-1.52,3.36-2.28,5.7-2.28s4.24.76,5.7,2.28c1.46,1.52,2.19,3.39,2.19,5.61s-.73,4.09-2.19,5.61c-1.46,1.52-3.36,2.28-5.7,2.28s-4.24-.76-5.7-2.28c-1.46-1.52-2.19-3.39-2.19-5.61ZM62.04,164.08v-42.97h14.03v42.97h-14.03Z"/><path class="cls-3" d="M96.15,164.08l-14.91-42.97h14.12l8.24,30.16,8.24-30.16h14.12l-14.91,42.97h-14.91Z"/><path class="cls-3" d="M149.98,120.24c5.61,0,10.05,1.65,13.33,4.95,3.27,3.3,4.91,7.88,4.91,13.72,0,2.22-.26,4.59-.79,7.1h-24.9c.12,2.63,1.01,4.75,2.67,6.36,1.67,1.61,4.22,2.41,7.67,2.41,2.1,0,4.31-.19,6.62-.57,2.31-.38,4.31-.95,6.01-1.71l1.75,9.03c-2.22,1.11-4.72,1.96-7.5,2.54-2.78.58-5.66.88-8.64.88-3.74,0-7.04-.54-9.91-1.62-2.86-1.08-5.26-2.59-7.19-4.52-1.93-1.93-3.39-4.24-4.38-6.93-.99-2.69-1.49-5.67-1.49-8.94,0-3.51.51-6.66,1.53-9.47,1.02-2.81,2.48-5.19,4.38-7.15,1.9-1.96,4.19-3.46,6.88-4.52,2.69-1.05,5.7-1.58,9.03-1.58ZM149.54,129.19c-2.22,0-3.93.72-5.13,2.15-1.2,1.43-1.8,3.41-1.8,5.92h12.45c.12-.47.18-.96.18-1.49,0-1.87-.5-3.43-1.49-4.69-.99-1.26-2.4-1.89-4.21-1.89Z"/><path class="cls-3" d="M175.59,134.97c0-2.1.67-3.95,2.02-5.52,1.34-1.58,3.3-2.37,5.87-2.37s4.53.79,5.87,2.37c1.34,1.58,2.02,3.42,2.02,5.52s-.67,3.95-2.02,5.52c-1.35,1.58-3.3,2.37-5.87,2.37s-4.53-.79-5.87-2.37c-1.35-1.58-2.02-3.42-2.02-5.52Z"/><path class="cls-3" d="M247.05,127.58c0,4.5-.5,8.61-1.49,12.32-.99,3.71-2.49,6.9-4.47,9.56-1.99,2.66-4.47,4.72-7.45,6.18-2.98,1.46-6.43,2.19-10.35,2.19s-7.44-.73-10.39-2.19c-2.95-1.46-5.42-3.52-7.41-6.18-1.99-2.66-3.48-5.84-4.47-9.56-.99-3.71-1.49-7.82-1.49-12.32s.5-8.61,1.49-12.32c.99-3.71,2.48-6.9,4.47-9.56,1.99-2.66,4.46-4.72,7.41-6.18,2.95-1.46,6.41-2.19,10.39-2.19s7.37.73,10.35,2.19c2.98,1.46,5.46,3.52,7.45,6.18,1.99,2.66,3.48,5.85,4.47,9.56.99,3.71,1.49,7.82,1.49,12.32ZM232.84,127.58c0-6.2-.72-10.92-2.15-14.16-1.43-3.24-3.9-4.87-7.41-4.87s-5.98,1.62-7.41,4.87c-1.43,3.24-2.15,7.97-2.15,14.16s.72,10.92,2.15,14.16c1.43,3.24,3.9,4.87,7.41,4.87s5.98-1.62,7.41-4.87c1.43-3.24,2.15-7.96,2.15-14.16Z"/><g class="cls-2"><path class="cls-3" d="M296.16,197.23c-6.19,0-9.38-3.18-12.21-5.99-2.81-2.79-5.23-5.2-10.29-5.2s-7.49,2.41-10.29,5.2c-2.82,2.81-6.02,5.99-12.21,5.99s-9.38-3.18-12.2-5.99c-2.81-2.79-5.23-5.2-10.29-5.2s-7.49,2.41-10.29,5.2c-2.82,2.81-6.02,5.99-12.2,5.99s-9.38-3.18-12.2-5.99c-2.81-2.79-5.23-5.2-10.29-5.2s-7.49,2.41-10.29,5.2c-2.82,2.81-6.02,5.99-12.2,5.99s-9.38-3.18-12.2-5.99c-2.8-2.79-5.23-5.2-10.29-5.2s-7.49,2.41-10.29,5.2c-2.82,2.81-6.02,5.99-12.2,5.99s-9.38-3.18-12.2-5.99c-2.8-2.79-5.22-5.2-10.29-5.2s-7.49,2.41-10.29,5.2c-2.82,2.81-6.02,5.99-12.2,5.99s-9.38-3.18-12.2-5.99c-2.8-2.79-5.23-5.2-10.29-5.2v-2.71c6.18,0,9.38,3.18,12.2,5.99,2.8,2.79,5.22,5.2,10.29,5.2s7.49-2.41,10.29-5.2c2.82-2.81,6.02-5.99,12.2-5.99s9.38,3.18,12.2,5.99c2.8,2.79,5.23,5.2,10.29,5.2s7.49-2.41,10.29-5.2c2.82-2.81,6.02-5.99,12.2-5.99s9.38,3.18,12.2,5.99c2.8,2.79,5.23,5.2,10.29,5.2s7.49-2.41,10.29-5.2c2.82-2.81,6.02-5.99,12.2-5.99s9.38,3.18,12.2,5.99c2.81,2.79,5.23,5.2,10.29,5.2s7.49-2.41,10.29-5.2c2.82-2.81,6.02-5.99,12.2-5.99s9.38,3.18,12.2,5.99c2.81,2.79,5.23,5.2,10.29,5.2s7.49-2.41,10.3-5.2c2.82-2.81,6.02-5.99,12.2-5.99s9.38,3.18,12.2,5.99c2.81,2.79,5.23,5.2,10.3,5.2v2.71Z"/></g><g class="cls-1"><path class="cls-3" d="M296.16,211.48c-6.19,0-9.38-3.18-12.21-5.99-2.81-2.79-5.23-5.2-10.29-5.2s-7.49,2.41-10.29,5.2c-2.82,2.81-6.02,5.99-12.21,5.99s-9.38-3.18-12.2-5.99c-2.81-2.79-5.23-5.2-10.29-5.2s-7.49,2.41-10.29,5.2c-2.82,2.81-6.02,5.99-12.2,5.99s-9.38-3.18-12.2-5.99c-2.81-2.79-5.23-5.2-10.29-5.2s-7.49,2.41-10.29,5.2c-2.82,2.81-6.02,5.99-12.2,5.99s-9.38-3.18-12.2-5.99c-2.8-2.79-5.23-5.2-10.29-5.2s-7.49,2.41-10.29,5.2c-2.82,2.81-6.02,5.99-12.2,5.99s-9.38-3.18-12.2-5.99c-2.8-2.79-5.22-5.2-10.29-5.2s-7.49,2.41-10.29,5.2c-2.82,2.81-6.02,5.99-12.2,5.99s-9.38-3.18-12.2-5.99c-2.8-2.79-5.23-5.2-10.29-5.2v-2.71c6.18,0,9.38,3.18,12.2,5.99,2.8,2.79,5.22,5.2,10.29,5.2s7.49-2.41,10.29-5.2c2.82-2.81,6.02-5.99,12.2-5.99s9.38,3.18,12.2,5.99c2.8,2.79,5.23,5.2,10.29,5.2s7.49-2.41,10.29-5.2c2.82-2.81,6.02-5.99,12.2-5.99s9.38,3.18,12.2,5.99c2.8,2.79,5.23,5.2,10.29,5.2s7.49-2.41,10.29-5.2c2.82-2.81,6.02-5.99,12.2-5.99s9.38,3.18,12.2,5.99c2.81,2.79,5.23,5.2,10.29,5.2s7.49-2.41,10.29-5.2c2.82-2.81,6.02-5.99,12.2-5.99s9.38,3.18,12.2,5.99c2.81,2.79,5.23,5.2,10.29,5.2s7.49-2.41,10.3-5.2c2.82-2.81,6.02-5.99,12.2-5.99s9.38,3.18,12.2,5.99c2.81,2.79,5.23,5.2,10.3,5.2v2.71Z"/></g><path class="cls-3" d="M254.15,151.89c.28.07.49.16.7.28.53.31,1.02.78,1.43,1.36.47.68.94,1.23,1.68,1.99.7.72.73.75.88,1.05.09.19.23.54.34.88.38,1.16.62,1.52,1.29,1.93.52.31.75.49,1.2.94.87.88,1.2,1.42,1.62,2.65.36,1.04.4,1.2.48,1.63.04.23.1.51.13.62.05.22.33.8.69,1.43.12.21.25.5.31.69.11.31.22.53.35.68.05.06.09.07.24.07.44,0,1.76-.16,2.08-.25.13-.04.17-.07.38-.33.32-.39.43-.48.88-.71.31-.16.39-.22.42-.29.06-.15.2-.32.31-.38.17-.09.4-.15.87-.23.52-.09.95-.1,1.09-.03.09.04.22.18.27.28.03.04.07.04.56,0,.81-.08,1.5,0,2.36.24.88.26,1.89,1.09,2.32,1.9.19.36.28.6.36,1.02.16.81.04,1.48-.37,2.1-.28.41-.79.91-1.21,1.19-.17.11-.76.42-.96.5-.09.04.06.04,1.23.07,1.09.02,1.46.02,2.02-.02.75-.05.85-.07,1.93-.3,1.17-.26,2.18-.39,2.73-.35.61.04,1.16.11,2.01.25,1.31.22,1.56.24,2.7.24,1.03,0,1.4.02,2.07.15,1.12.2,2,.26,2.98.16,1.13-.1,1.77-.14,2.41-.15.47,0,.7-.01.72-.04s.22-.04.65-.04c.34,0,.84-.02,1.13-.04s.73-.04.99-.04c.34,0,.54-.01.77-.06.17-.03.38-.06.48-.06.15,0,.19.01.25.07.15.15.06.34-.22.48-.18.09-.18.1-.14.17.07.14-.02.28-.34.49-.13.08-.32.18-.43.22s-.28.14-.39.22c-.14.1-.27.17-.44.23-.23.07-.29.08-.85.09h-.61s-.19.2-.19.2c-.39.37-.73.47-1.9.52-.82.04-1.07.07-1.53.21-.66.2-.84.23-1.39.25-.59.02-.97-.02-1.62-.19-.55-.14-1.26-.28-1.37-.28-.09,0-1.04.19-1.37.28-.09.02-.4.11-.68.2-1.04.31-3.14.8-4.24.98-.61.1-1.65.13-3.36.1-2.17-.04-4.32,0-5.35.11-.98.1-1.58.21-3.25.57-.73.16-1.36.28-2.74.54-.81.15-1.14.2-1.9.28-.53.06-.78.11-1.46.3-.45.13-.72.24-1.77.75-1.26.61-1.8.81-2.56.92-.42.07-1.34.04-1.76-.05-.79-.16-1.63-.3-1.93-.32-.36-.02-.8.01-1.72.13-.72.09-1.71.12-2.21.07-.45-.04-1.55-.21-2.33-.36-.34-.07-.88-.15-1.2-.2-.56-.08-.63-.08-2.06-.09-1.36,0-1.52,0-1.9-.07-.6-.09-1.26-.24-1.91-.43-.25-.07-.83-.24-1.29-.37-.46-.13-1.14-.3-1.51-.38-.68-.14-.69-.14-1.25-.14-.63,0-.97.04-1.93.22-.34.07-.97.17-1.39.24-.96.15-1.35.25-2.12.52-.34.12-.77.26-.95.31-.67.18-1.55.31-2.52.39-.55.04-2.78.04-3.6,0-1.04-.06-2.04-.12-2.76-.18-.38-.03-1.03-.09-1.45-.12-1.83-.15-2.63-.26-3.72-.53-.95-.24-1.56-.37-2.09-.46-.53-.09-1.48-.19-1.8-.19-.26,0-.68.08-1.35.27-.74.2-.94.22-2.2.22-1.17,0-1.45-.02-2.3-.15-.45-.07-.5-.07-.65-.03-.08.02-.33.09-.54.15-.65.18-2.44.61-2.85.69-1,.19-2.15.33-3.31.39-1.15.06-4.73.1-6.25.07-1.63-.04-4.31-.03-5.44,0-.49.01-1.31.03-1.82.03-1.33,0-3.03.14-3.72.3-.4.09-1.43.45-1.96.68-.77.33-1.26.4-2.12.31-.28-.03-.63-.06-.8-.08-.16-.01-.35-.05-.42-.08-.25-.11-.61-.55-.61-.74,0-.15.13-.33.57-.77.61-.61.9-.78,1.67-.95.64-.14.76-.2,1.49-.69.38-.26.93-.53,1.36-.69.66-.24,1.16-.45,1.35-.58.27-.18.52-.39,1.2-1.06.33-.31.71-.67.85-.8.75-.69,1.53-.95,2.05-.69.26.13.43.27.92.74,1.02.99,1.29,1.07,2.43.79.32-.08.87-.2,1.22-.27.7-.13,1.84-.38,2.63-.56.76-.18.98-.22,1.7-.36.36-.07.96-.19,1.32-.28,1.05-.26,1.28-.31,2.03-.43.71-.12.98-.17,1.73-.31.22-.04.73-.11,1.13-.15s.73-.09.74-.09c.03-.03-.04-.05-.74-.22-1.07-.27-1.58-.42-3.33-.99-1.45-.47-2.53-.81-3.26-1.01-.15-.04-.52-.15-.8-.24-.28-.09-.66-.21-.84-.26-.6-.19-1.63-.55-3-1.07-.9-.34-1.93-.63-3.04-.86-.28-.06-.84-.18-1.23-.27-.98-.22-1.09-.24-1.87-.27-.75-.03-.88-.06-1.6-.27-.27-.08-.58-.16-.7-.18s-.64-.04-1.14-.06c-.7-.02-1-.04-1.27-.09-.39-.07-.47-.1-.61-.25-.16-.16-.2-.35-.12-.6.04-.16.28-.38.62-.59.42-.26.46-.28.73-.6.33-.38.66-.66,1.04-.84.34-.17.94-.31,1.39-.31.1,0,.34-.04.58-.11,1.1-.29,1.41-.35,2.58-.47.94-.1,1.5-.26,2.36-.67.65-.31.99-.45,1.4-.56.6-.17.77-.2,1.28-.19.42,0,.49,0,.64.07.22.09.37.26.51.59.1.25.15.4.32,1.17.04.19.12.42.16.52.09.2.21.29.58.46.3.13,1.32.47,2.16.71,1.02.29,1.57.42,3.39.8.39.08,1.01.23,1.38.31.5.12.79.18,1.12.21,1.59.15,2.12.23,4.06.62,1.74.35,1.93.39,3.25.85,1.93.66,2.06.7,2.63.93.31.12.74.28.94.36l.38.14.27-.04c.39-.07.5-.08,1.16-.11.33-.02.72-.05.88-.07.96-.14,1.88-.29,2.02-.33.21-.06,1.02-.31,2.55-.8,2.57-.82,3.29-.99,4.82-1.13.79-.07,1.78-.11,2.12-.09.98.05,1.35.09,1.91.15.5.06.76.08,1.31.08h.68s.3-.09.3-.09c.16-.06.66-.28,1.1-.5,1.47-.72,1.85-.85,2.72-.94.44-.04.74-.03,1.49.06,1,.12,1.47.2,2.49.47.16.04.34.08.38.09.08.01.08,0,.05-.05-.12-.23.06-.51.6-.95l.17-.14-.09-.07c-.12-.09-.12-.23-.02-.35.14-.16.69-.57,1.43-1.05.89-.58,1.38-.92,1.54-1.07.06-.06.24-.26.39-.43.35-.42.72-.78.95-.92.1-.06.31-.17.47-.24.86-.37,1.47-.93,1.77-1.58.24-.55,1.15-2.33,1.42-2.79.34-.58.6-.98,1.94-3.01.24-.36.59-.8,1.03-1.29.41-.46.65-.69.93-.9.41-.32.59-.36,1-.25h0ZM253.9,159.09c-.19.14-.5.35-.68.46-.9.54-1.18.8-2.23,2.06-.34.41-.73.82-1.22,1.31-.39.39-.88.89-1.08,1.12-.2.23-.47.51-.6.62-.27.25-.84.63-1.22.82-.38.19-.72.41-1.19.77-.77.58-2.08,1.37-2.53,1.53-.16.06-.21.09-.19.12,0,0,.18.04.37.08.2.03.52.09.72.13s.49.09.64.1c.15.02.55.08.89.14,1.23.2,1.43.15,2.72-.71.35-.23.93-.6,1.28-.82.36-.22.81-.51,1.01-.64,1.06-.69,1.82-1.15,2.71-1.63.38-.21.74-.41.8-.45.51-.32,1.69-.95,2.12-1.13.17-.07.3-.15.3-.17,0-.04-.43-.67-.8-1.18-.3-.42-.69-1.06-.89-1.47-.19-.39-.32-.79-.35-1.11,0-.09-.02-.21-.03-.27v-.1s-.11.08-.11.08c-.05.04-.25.2-.44.34Z"/><path class="cls-3" d="M176.04,171.53c-1.8,1.12-3.23,2.54-4.57,3.88-2.81,2.8-5.23,5.21-10.3,5.21s-7.48-2.41-10.29-5.21c-2.82-2.81-6.02-5.99-12.2-5.99s-9.38,3.18-12.2,5.99c-2.8,2.8-5.23,5.21-10.29,5.21s-7.49-2.41-10.29-5.21c-2.82-2.81-6.02-5.99-12.2-5.99s-9.38,3.18-12.21,5.99c-2.8,2.8-5.22,5.21-10.29,5.21s-7.48-2.41-10.29-5.21c-2.82-2.81-6.02-5.99-12.2-5.99v2.71c5.07,0,7.49,2.41,10.29,5.2,2.82,2.81,6.02,6,12.2,6s9.38-3.19,12.2-6c2.81-2.79,5.23-5.2,10.3-5.2s7.48,2.41,10.29,5.2c2.82,2.81,6.02,6,12.2,6s9.38-3.19,12.2-6c2.81-2.79,5.23-5.2,10.29-5.2s7.49,2.41,10.29,5.2c2.82,2.81,6.02,6,12.2,6s9.39-3.19,12.21-6c.89-.88,1.75-1.73,2.66-2.48v-3.32Z"/></g></svg>