<?xml version="1.0" encoding="UTF-8"?><svg id="Layer_2" xmlns="http://www.w3.org/2000/svg" viewBox="0 0 90.45 100"><defs><style>.cls-1{fill:#fff;stroke-width:0px;}</style></defs><g id="Contents"><path class="cls-1" d="M44.1,18.17l-17.07-6.32c-.96-.36-2.04.09-2.46,1.03l-15.35,34.08c-1.55,3.44-1.6,7.4-.15,10.88,1.2,2.87,3.36,5.24,6.07,6.72l-7.42,20.06-5.09-1.89c-1.01-.37-2.13.14-2.51,1.15-.37,1.01.14,2.13,1.15,2.51l6.92,2.56h0l6.92,2.56c.22.08.45.12.68.12.79,0,1.54-.49,1.83-1.27.37-1.01-.14-2.13-1.15-2.51l-5.09-1.89,7.43-20.07c.94.2,1.9.3,2.85.3,2.11,0,4.22-.49,6.13-1.45,3.37-1.69,5.91-4.74,6.97-8.35l10.53-35.86c.3-.96-.22-2-1.19-2.36ZM31.02,55.31c-.77,2.62-2.54,4.74-4.98,5.96-2.44,1.23-5.2,1.38-7.76.43s-4.55-2.86-5.61-5.38c-1.05-2.52-1.02-5.28.11-7.77l14.61-32.41,13.65,5.05-10.02,34.12Z"/><path class="cls-1" d="M90.34,92.7c-.35-1.02-1.45-1.57-2.47-1.22l-5.15,1.74-6.85-20.27c2.75-1.4,4.98-3.7,6.26-6.54,1.55-3.43,1.62-7.4.17-10.88l-14.37-34.5c-.39-.95-1.45-1.43-2.43-1.1l-17.24,5.82c-.97.33-1.52,1.35-1.26,2.34l9.5,36.15c.96,3.65,3.41,6.76,6.73,8.55,2,1.08,4.24,1.63,6.48,1.63.82,0,1.65-.08,2.47-.23l6.85,20.27-5.15,1.74c-1.02.34-1.57,1.45-1.22,2.47.28.81,1.03,1.33,1.85,1.33.21,0,.42-.03.62-.1l13.99-4.73c1.02-.34,1.57-1.45,1.22-2.47ZM65.08,69.35c-2.4-1.29-4.11-3.46-4.81-6.1l-9.03-34.39,13.79-4.66,13.67,32.82c1.05,2.52,1.01,5.28-.12,7.77-1.13,2.49-3.17,4.34-5.76,5.21h0c-2.59.88-5.34.64-7.74-.65Z"/><path class="cls-1" d="M46.88,11.8l-3.12-7.42c-.42-.99-1.56-1.46-2.56-1.04-.99.42-1.46,1.56-1.04,2.56l3.12,7.42c.31.75,1.04,1.19,1.8,1.19.25,0,.51-.05.76-.15.99-.42,1.46-1.56,1.04-2.56Z"/><path class="cls-1" d="M53.7,19.63c.39.48.95.73,1.52.73.43,0,.86-.14,1.22-.43l6.27-5.05c.84-.68.97-1.91.3-2.74-.68-.84-1.91-.97-2.74-.3l-6.27,5.05c-.84.67-.98,1.9-.3,2.74Z"/><path class="cls-1" d="M51.61,11.34c.22.08.45.12.67.12.8,0,1.54-.49,1.83-1.28l2.77-7.56c.37-1.01-.15-2.13-1.16-2.5-1-.37-2.13.15-2.5,1.16l-2.77,7.56c-.37,1.01.15,2.13,1.16,2.5Z"/></g></svg>